# xmcd
#
# Track frame offsets: 
#        150
#        21428
#        41807
#        61781
#        88642
#        124085
#        180489
#        202543
#        227131
#
# Disc length: 3370 seconds
#
# Revision: 0
# Processed by: cddbd v1.5.2PL0 Copyright (c) Steve Scherf et al.
# Submitted via: ExactAudioCopyFreeDBPlugin 1.0
#
DISCID=6c0d2809
DTITLE=Charles Walker Band - ReSouled
DYEAR=2012
DGENRE=Blues
TTITLE0=Used and Defiant
TTITLE1=Exquisite Soul
TTITLE2=Funky Sexy
TTITLE3=Arrogance
TTITLE4=Rock Me Baby
TTITLE5=Sones In My Passway
TTITLE6=Slow Thunder
TTITLE7=Keep Takin
TTITLE8=Carawlin' Home
EXTD=
EXTT0=
EXTT1=
EXTT2=
EXTT3=
EXTT4=
EXTT5=
EXTT6=
EXTT7=
EXTT8=
PLAYORDER=
